<?xml version="1.0" standalone="no"?>
<!DOCTYPE svg PUBLIC "-//W3C//DTD SVG 20010904//EN"
 "http://www.w3.org/TR/2001/REC-SVG-20010904/DTD/svg10.dtd">
<svg version="1.0" xmlns="http://www.w3.org/2000/svg"
 width="1600.000000pt" height="1600.000000pt" viewBox="0 0 1600.000000 1600.000000"
 preserveAspectRatio="xMidYMid meet">
<metadata>
Created by potrace 1.11, written by Peter Selinger 2001-2013
</metadata>
<g transform="translate(0.000000,1600.000000) scale(0.100000,-0.100000)"
fill="#000000" stroke="none">
<path d="M4990 11830 c-809 -59 -1592 -509 -2297 -1322 -801 -923 -1197 -1942
-1170 -3013 5 -237 23 -378 73 -573 96 -377 283 -704 562 -980 335 -332 760
-533 1260 -596 143 -18 486 -21 643 -6 415 41 821 160 1208 355 501 251 1113
709 1704 1274 77 73 141 131 143 128 3 -2 18 -71 35 -153 44 -214 109 -402
201 -584 98 -194 184 -315 318 -451 240 -242 493 -349 826 -349 450 0 847 179
1339 602 236 204 600 566 853 850 48 53 88 95 89 94 2 -2 -289 -1349 -311
-1441 -4 -15 -27 -27 -88 -48 -150 -51 -506 -186 -702 -267 -1465 -600 -2157
-1216 -2323 -2065 -24 -127 -24 -462 0 -594 71 -375 277 -678 583 -857 344
-202 853 -225 1359 -64 657 211 1311 775 1860 1605 381 575 700 1252 989 2097
l72 211 135 51 c757 291 1405 702 1966 1250 l163 159 0 429 0 429 -95 -110
c-526 -608 -1095 -1088 -1616 -1360 -156 -82 -349 -165 -349 -150 0 27 727
3882 766 4063 82 376 213 865 328 1222 25 78 46 144 46 148 0 3 -39 6 -86 6
l-85 0 -332 -149 c-462 -207 -821 -358 -1029 -432 l-38 -13 -107 105 c-248
242 -490 382 -791 458 -171 43 -344 56 -543 42 -554 -40 -1063 -243 -1573
-629 -321 -243 -696 -625 -974 -990 -518 -682 -815 -1390 -896 -2137 l-15
-140 -233 -230 c-517 -511 -937 -823 -1303 -968 -278 -110 -599 -161 -870
-138 -382 33 -649 153 -900 405 -283 285 -456 674 -517 1166 -20 160 -17 667
6 850 73 604 253 1114 548 1557 275 412 588 620 906 600 233 -14 402 -207 457
-521 24 -138 19 -258 -26 -604 -57 -444 -56 -503 12 -537 37 -20 54 -19 135 6
69 21 981 448 1100 514 143 80 219 164 256 280 19 59 22 92 22 210 -2 372
-124 660 -384 908 -321 306 -754 437 -1310 397z m6044 -602 c157 -52 311 -214
385 -408 98 -252 78 -593 -73 -1290 -174 -802 -288 -1162 -511 -1615 -162
-328 -291 -521 -465 -695 -179 -179 -358 -278 -560 -310 -386 -60 -692 146
-829 560 -144 432 -85 1202 143 1885 69 206 131 355 237 574 117 240 173 342
285 512 327 499 713 776 1124 807 123 9 191 4 264 -20z m-785 -6444 c-182
-672 -377 -1220 -584 -1639 -227 -462 -436 -708 -706 -834 -131 -61 -194 -75
-349 -75 -154 -1 -234 18 -350 81 -90 50 -224 187 -272 278 -63 122 -80 192
-85 355 -8 221 24 359 128 560 253 486 919 951 1940 1353 230 91 324 124 327
116 1 -3 -20 -91 -49 -195z"/>
</g>
</svg>
